<?xml version="1.0" encoding="utf-8"?>
<!-- Generator: Adobe Illustrator 19.2.1, SVG Export Plug-In . SVG Version: 6.00 Build 0)  -->
<svg version="1.1" id="Layer_1" xmlns="http://www.w3.org/2000/svg" xmlns:xlink="http://www.w3.org/1999/xlink" x="0px" y="0px"
	 viewBox="0 0 244.2 31" style="enable-background:new 0 0 244.2 31;" xml:space="preserve">
<style type="text/css">
	.st0{fill:#FFFFFF;}
</style>
<g>
	<path class="st0" d="M109.8,20.7c3-2,5-5.5,5-9.3c0-6.1-5.1-11.3-11.1-11.3h-0.3h-1.3h-5.5H92v31h7v-8h4.2l4.1,8h7.6L109.8,20.7z
		 M102.6,16H99V7h3.6c0.6,0,1.1-0.1,1.6,0.2c0.5,0.3,1,0.5,1.4,1c0.4,0.4,0.7,0.9,0.9,1.5c0.2,0.6,0.3,1.1,0.3,1.7
		c0,0.6-0.1,1.2-0.3,1.8c-0.2,0.6-0.6,1.1-1,1.6c-0.4,0.4-0.8,0.7-1.3,1C103.7,15.9,103.2,16,102.6,16z"/>
	<path class="st0" d="M239,20.7c3-2,5-5.5,5-9.3C244,5.2,238.9,0,232.9,0h-0.3h-1.3h-5.5H221v31h7v-8h4.4l4.1,8h7.6L239,20.7z
		 M231.8,16H228V7h3.8c0.6,0,1.1-0.1,1.6,0.2c0.5,0.3,1,0.5,1.4,1c0.4,0.4,0.7,0.9,0.9,1.5c0.2,0.6,0.3,1.1,0.3,1.7
		c0,0.6-0.1,1.2-0.3,1.8c-0.2,0.6-0.6,1.1-1,1.6c-0.4,0.4-0.8,0.7-1.3,1C232.9,15.9,232.4,16,231.8,16z"/>
	<path class="st0" d="M22.4,10.3l0-0.3c0-0.1,0-0.2,0-0.2c0-0.2,0-0.4-0.1-0.6l-0.1-0.5l0,0c0-0.2-0.1-0.4-0.2-0.6
		c-0.4-1.3-1-2.5-1.8-3.5c-0.8-1-1.8-2-2.9-2.7C15.3,0.7,13,0,10.5,0H0v31h7v-8h3.5c1.3,0,2.5-0.3,3.6-0.7c1.1-0.3,2.2-0.9,3.2-1.5
		c1.1-0.7,2.1-1.7,2.9-2.7c0.8-1,1.4-2.2,1.8-3.5c0.1-0.2,0.1-0.3,0.2-0.5c0,0,0-0.1,0-0.1l0.1-0.1l0.2-1.5c0-0.2,0-0.3,0.1-0.5
		c0-0.2,0-0.4,0-0.7c0-0.2,0-0.4,0-0.6C22.4,10.6,22.4,10.4,22.4,10.3z M15.2,11.4c0,0.6-0.1,1.2-0.3,1.8c-0.2,0.6-0.5,1.1-0.9,1.5
		c-0.4,0.4-0.8,0.7-1.4,1c-0.5,0.2-1,0.3-1.6,0.3H7V7h4c0.6,0,1.1-0.1,1.6,0.2c0.5,0.3,1,0.5,1.4,1c0.4,0.4,0.7,0.9,0.9,1.5
		C15.1,10.2,15.2,10.8,15.2,11.4z"/>
	<polygon class="st0" points="158.3,0 150,0 143,9.6 143,0 136,0 136,31 143,31 143,20.8 144.7,18.6 151,31 158.6,31 149.2,12.4 	
		"/>
	<polygon class="st0" points="187,20 187,20 187,13 187,13 187,7 199,7 199,0 180,0 180,31 199,31 199,24 187,24 	"/>
	<polygon class="st0" points="56.6,-0.9 51.8,9.7 62.7,31 71.9,31 	"/>
	<circle class="st0" cx="44" cy="27" r="3.8"/>
	<circle class="st0" cx="194" cy="16" r="3.8"/>
</g>
</svg>
